<?xml version="1.0" standalone="no"?>
<!DOCTYPE svg PUBLIC "-//W3C//DTD SVG 20010904//EN"
 "http://www.w3.org/TR/2001/REC-SVG-20010904/DTD/svg10.dtd">
<svg version="1.0" xmlns="http://www.w3.org/2000/svg"
 width="375.000000pt" height="375.000000pt" viewBox="0 0 375.000000 375.000000"
 preserveAspectRatio="xMidYMid meet">
<metadata>
Created by potrace 1.14, written by Peter Selinger 2001-2017
</metadata>
<g transform="translate(0.000000,375.000000) scale(0.100000,-0.100000)"
fill="#000000" stroke="none">
<path d="M2421 3309 c-126 -147 -386 -250 -816 -325 -110 -19 -237 -46 -283
-61 l-83 -26 -107 26 c-499 122 -878 88 -1066 -95 -66 -65 -77 -108 -52 -209
57 -221 322 -574 568 -754 34 -26 64 -48 65 -49 4 -4 -36 -145 -74 -261 -36
-111 -79 -206 -115 -258 -11 -15 -17 -34 -14 -42 7 -18 94 -44 178 -52 38 -3
68 -7 68 -8 0 -11 -47 -134 -71 -187 -18 -37 -29 -74 -26 -82 8 -20 98 -46
159 -46 26 0 48 -4 48 -9 0 -6 -22 -40 -50 -76 -27 -36 -50 -72 -50 -80 0 -18
56 -47 129 -69 81 -24 161 -21 235 9 l63 25 64 -26 c624 -256 1179 -326 1635
-209 178 46 254 92 325 197 27 39 52 63 71 70 68 24 207 98 263 141 67 51 101
91 135 157 13 25 42 67 66 93 56 62 71 113 55 187 -20 99 -110 198 -218 240
-26 10 -47 23 -46 29 12 50 23 276 18 356 -13 188 -24 218 -91 250 l-35 16 34
47 c151 207 217 351 217 467 0 48 -5 70 -23 96 -52 78 -189 152 -342 185 -141
30 -417 21 -620 -21 l-31 -7 0 89 c0 65 -5 105 -22 153 -30 88 -78 170 -100
170 -9 0 -37 -23 -61 -51z m80 -80 c29 -57 51 -170 43 -221 -4 -24 -18 -65
-31 -92 -16 -31 -21 -52 -15 -58 5 -5 50 -23 98 -40 256 -85 518 -256 579
-378 25 -49 70 -218 61 -227 -3 -3 -8 2 -12 11 -8 22 -75 21 -117 -1 -29 -17
-75 -18 -562 -17 -457 1 -539 4 -591 18 -34 9 -94 16 -134 16 -70 0 -72 -1
-83 -29 -8 -23 -19 -30 -46 -35 -62 -10 -124 -48 -143 -86 -58 -120 -48 -446
19 -579 24 -48 36 -60 83 -84 87 -43 186 -61 345 -61 230 0 336 38 431 153 98
118 153 246 163 381 l6 85 107 3 106 3 4 -61 c2 -42 -1 -65 -11 -74 -8 -8 -10
-22 -6 -35 13 -43 195 -177 367 -271 l78 -42 -25 -32 c-33 -43 -55 -109 -55
-163 0 -38 5 -49 43 -86 45 -46 163 -107 290 -152 42 -15 77 -30 77 -32 0 -14
-67 -97 -107 -133 -62 -54 -227 -135 -327 -160 -137 -34 -245 -26 -486 40
-132 36 -228 47 -253 28 -34 -25 -11 -45 59 -51 36 -4 143 -25 237 -48 150
-37 187 -43 289 -43 65 -1 118 -3 118 -6 0 -3 -21 -27 -47 -52 -55 -53 -105
-77 -236 -112 -165 -44 -230 -51 -462 -50 -179 0 -244 4 -350 22 -255 44 -509
117 -767 222 l-121 49 -51 -27 c-43 -23 -63 -27 -131 -26 -50 0 -94 6 -117 16
l-37 17 55 83 c48 74 67 127 47 129 -5 0 -52 1 -105 2 -53 1 -99 5 -103 9 -4
3 9 49 29 101 52 139 63 186 47 196 -7 5 -52 11 -99 14 -48 4 -96 9 -108 13
-21 6 -21 6 7 58 37 67 89 213 124 344 23 85 31 102 44 96 35 -15 66 -10 69
13 3 17 -8 27 -55 52 -243 130 -568 509 -648 756 -36 110 -31 147 26 197 183
159 541 185 1004 72 56 -13 143 -38 195 -54 101 -33 123 -33 118 2 -2 16 -15
27 -46 38 l-44 16 39 12 c21 6 117 25 213 42 418 73 661 160 821 294 35 30 65
55 66 55 2 1 12 -17 24 -40z m784 -323 c92 -26 179 -70 229 -116 44 -40 46
-45 46 -96 0 -95 -64 -233 -189 -406 -31 -43 -58 -78 -61 -78 -4 0 -16 44 -28
98 -30 130 -60 192 -129 261 -99 98 -288 213 -457 277 -39 15 -75 31 -79 35
-8 6 38 16 188 40 89 14 413 4 480 -15z m-951 -762 c153 -27 204 -71 213 -187
10 -126 -62 -309 -168 -421 -97 -104 -195 -132 -428 -123 -202 7 -307 41 -342
108 -44 88 -66 270 -49 417 14 128 27 156 81 175 79 29 87 29 93 9 6 -16 20
-20 108 -26 177 -11 387 -65 521 -133 27 -13 51 -22 53 -20 8 8 -46 65 -97
103 -28 20 -85 56 -127 80 l-76 44 70 -6 c38 -3 105 -12 148 -20z m547 0 c-17
-14 -38 -47 -47 -72 l-17 -47 -118 0 c-113 -1 -118 0 -123 21 -9 36 -57 85
-101 105 l-40 19 238 0 239 0 -31 -26z m373 -16 c15 -84 27 -228 33 -397 l6
-183 -34 17 c-19 9 -78 42 -131 73 l-97 55 -3 104 -3 103 28 0 c15 0 41 -7 56
-15 31 -16 111 -101 111 -119 0 -6 5 -4 10 4 15 22 12 126 -4 164 -11 28 -25
38 -70 55 -112 42 -203 16 -263 -73 l-33 -48 0 39 c0 37 4 43 58 83 75 56 151
90 237 104 65 11 70 14 73 39 5 37 19 34 26 -5z m-296 -25 c-25 -27 -58 -66
-73 -88 l-27 -40 7 40 c10 61 30 91 77 114 64 31 67 26 16 -26z m447 11 c36
-24 49 -123 42 -334 -7 -216 -8 -220 -57 -220 l-37 0 -7 163 c-3 89 -11 213
-17 275 -6 61 -8 119 -5 128 7 18 43 13 81 -12z m-397 -311 c-3 -55 -21 -65
-26 -15 -4 39 3 62 18 62 7 0 10 -18 8 -47z m-102 -1 c-10 -10 -29 15 -21 28
6 9 10 8 17 -4 6 -10 7 -20 4 -24z"/>
<path d="M1887 1994 c-113 -20 -145 -36 -164 -81 -14 -35 -14 -135 0 -150 3
-2 33 16 66 41 75 54 156 86 237 93 72 6 75 2 67 -100 -6 -73 11 -191 33 -224
12 -19 23 -23 67 -23 107 0 115 13 126 193 l6 108 72 -49 c67 -47 71 -48 62
-24 -6 15 -25 46 -42 68 -111 142 -289 192 -530 148z m398 -194 c0 -54 -27
-69 -42 -23 -13 36 1 76 24 71 14 -3 18 -13 18 -48z"/>
</g>
</svg>
