<svg viewBox="0 0 50 50" xmlns="http://www.w3.org/2000/svg">
    <rect x="16.089" y="16.59" width="16.82" height="16.82" rx="8.4099"></rect>
    <path d="m5.9967 16.59c4.6447 0 8.41 3.7652 8.41 8.4099s-3.7653 8.4099-8.41 8.4099v-16.82z"></path>
    <path d="m5.9967 35.092c4.6447 0 8.41 3.7653 8.41 8.41h-8.41v-8.41z"></path>
    <path d="m14.407 6.4981c0 4.6447-3.7653 8.41-8.41 8.41v-8.41h8.41z"></path>
    <path d="m43 14.908c-4.6447 0-8.41-3.7653-8.41-8.41h8.41v8.41z"></path>
    <path d="m34.59 43.502c0-4.6447 3.7653-8.41 8.41-8.41v8.41h-8.41z"></path>
    <path d="m43 16.59c-4.6447 0-8.41 3.7652-8.41 8.4099s3.7653 8.4099 8.41 8.4099v-16.82z"></path>
    <path d="m16.089 43.502c0-4.6447 3.7653-8.41 8.41-8.41s8.4099 3.7653 8.4099 8.41h-16.82z"></path>
    <path d="m16.089 6.4981c0 4.6447 3.7653 8.41 8.41 8.41s8.4099-3.7653 8.4099-8.41h-16.82z"></path>
    <path d="m31.783 4.8161c-1.4541-2.5137-4.172-4.205-7.2848-4.205-3.1129 0-5.8307 1.6912-7.2849 4.205h14.57z"></path>
    <path d="m44.682 17.715c2.5138 1.4541 4.205 4.1719 4.205 7.2848s-1.6912 5.8307-4.205 7.2848v-14.57z"></path>
    <path d="m17.214 45.184c1.4542 2.5137 4.172 4.2049 7.2849 4.2049 3.1128 0 5.8307-1.6912 7.2848-4.2049h-14.57z"></path>
    <path d="m4.3147 32.285c-2.5137-1.4541-4.205-4.1719-4.205-7.2848s1.6912-5.8307 4.205-7.2848v7.2848 7.2848z"></path>
</svg>